<svg id="Camada_1" data-name="Camada 1" xmlns="http://www.w3.org/2000/svg" viewBox="0 0 124.87 34.13"><defs><style>.cls-1{fill:#211915;}.cls-2{fill:#399cd7;}</style></defs><title>logo</title><path class="cls-1" d="M165.2,85.49v4.19h3.39v1.49H165.2v10.92a3.39,3.39,0,0,0,.49,2,1.9,1.9,0,0,0,1.64.67,11.33,11.33,0,0,0,1.47-.15l.08,1.47a6,6,0,0,1-1.94.25,3.23,3.23,0,0,1-2.71-1.08,5.06,5.06,0,0,1-.85-3.19V91.17h-3V89.68h3V85.49Z" transform="translate(-160.37 -79.9)"/><path class="cls-1" d="M182.68,106.06a8.67,8.67,0,0,1-.35-2.29,6.23,6.23,0,0,1-2.43,1.92,7.38,7.38,0,0,1-3.12.67A5.46,5.46,0,0,1,173,105a4.25,4.25,0,0,1-1.46-3.33,4.38,4.38,0,0,1,2-3.78A9.51,9.51,0,0,1,179,96.54h3.29V94.68a3.61,3.61,0,0,0-1.08-2.77,4.51,4.51,0,0,0-3.16-1,4.89,4.89,0,0,0-3.13,1,2.86,2.86,0,0,0-1.24,2.33l-1.82,0a4.18,4.18,0,0,1,1.82-3.38,7,7,0,0,1,4.46-1.43,6.33,6.33,0,0,1,4.32,1.37,4.9,4.9,0,0,1,1.63,3.82v7.75a9.68,9.68,0,0,0,.5,3.56v.18Zm-5.69-1.3a6.16,6.16,0,0,0,3.25-.88,5.25,5.25,0,0,0,2.08-2.35v-3.6h-3.24a8.12,8.12,0,0,0-4.24,1,3.06,3.06,0,0,0-.51,4.93A3.84,3.84,0,0,0,177,104.76Z" transform="translate(-160.37 -79.9)"/><path class="cls-2" d="M200,92.23,207.2,79.9H214L203.73,96.82,214.27,114h-6.91L200,101.51,192.66,114h-6.89l10.57-17.21L186,79.9h6.84Z" transform="translate(-160.37 -79.9)"/><path class="cls-1" d="M229.22,98a9.83,9.83,0,0,1-1.7,6.07,5.39,5.39,0,0,1-4.54,2.25,6.08,6.08,0,0,1-5.15-2.36v8.36H216V89.68h1.68L217.8,92a5.8,5.8,0,0,1,5.13-2.62,5.44,5.44,0,0,1,4.61,2.22,10.06,10.06,0,0,1,1.68,6.18Zm-1.82-.32a8.4,8.4,0,0,0-1.29-5A4.15,4.15,0,0,0,222.53,91a5.09,5.09,0,0,0-2.87.8,5.18,5.18,0,0,0-1.83,2.34v7.85a4.82,4.82,0,0,0,1.87,2.15,5.39,5.39,0,0,0,2.86.74,4.11,4.11,0,0,0,3.56-1.82A9.2,9.2,0,0,0,227.4,97.72Z" transform="translate(-160.37 -79.9)"/><path class="cls-1" d="M235.25,106.06h-1.81V82.81h1.81Z" transform="translate(-160.37 -79.9)"/><path class="cls-1" d="M250.51,106.06a8.74,8.74,0,0,1-.34-2.29,6.38,6.38,0,0,1-2.43,1.92,7.46,7.46,0,0,1-3.13.67,5.48,5.48,0,0,1-3.82-1.32,4.25,4.25,0,0,1-1.46-3.33,4.38,4.38,0,0,1,2-3.78,9.53,9.53,0,0,1,5.55-1.39h3.28V94.68a3.59,3.59,0,0,0-1.08-2.77,4.49,4.49,0,0,0-3.16-1,4.91,4.91,0,0,0-3.13,1,2.86,2.86,0,0,0-1.24,2.33l-1.82,0a4.21,4.21,0,0,1,1.82-3.38A7,7,0,0,1,246,89.38a6.33,6.33,0,0,1,4.32,1.37A4.9,4.9,0,0,1,252,94.57v7.75a9.72,9.72,0,0,0,.5,3.56v.18Zm-5.69-1.3a6.13,6.13,0,0,0,3.25-.88,5.19,5.19,0,0,0,2.08-2.35v-3.6h-3.24a8.12,8.12,0,0,0-4.24,1,3,3,0,0,0-1.53,2.64,2.92,2.92,0,0,0,1,2.29A3.86,3.86,0,0,0,244.82,104.76Z" transform="translate(-160.37 -79.9)"/><path class="cls-1" d="M262.83,104.83a4.76,4.76,0,0,0,3.17-1.06,3.76,3.76,0,0,0,1.39-2.77h1.74a5.13,5.13,0,0,1-.94,2.74,5.93,5.93,0,0,1-2.29,1.93,7,7,0,0,1-3.07.69,6.31,6.31,0,0,1-5.1-2.24,9,9,0,0,1-1.89-6v-.55a10.16,10.16,0,0,1,.85-4.28,6.5,6.5,0,0,1,2.43-2.88,6.75,6.75,0,0,1,3.7-1,6.29,6.29,0,0,1,4.44,1.6,5.84,5.84,0,0,1,1.87,4.23h-1.74A4.43,4.43,0,0,0,266,92.1a4.94,4.94,0,0,0-7,.59,8,8,0,0,0-1.35,5v.53a7.85,7.85,0,0,0,1.35,4.89A4.56,4.56,0,0,0,262.83,104.83Z" transform="translate(-160.37 -79.9)"/><path class="cls-1" d="M279.09,106.36a7.11,7.11,0,0,1-3.78-1,6.94,6.94,0,0,1-2.62-2.87,8.86,8.86,0,0,1-.94-4.12v-.65a9.55,9.55,0,0,1,.92-4.26,7.27,7.27,0,0,1,2.55-3,6.3,6.3,0,0,1,3.54-1.08,5.93,5.93,0,0,1,4.73,2A8.31,8.31,0,0,1,285.24,97v1H273.55v.35a6.84,6.84,0,0,0,1.6,4.64,5.08,5.08,0,0,0,4,1.85,5.77,5.77,0,0,0,2.56-.53,5.68,5.68,0,0,0,2-1.69l1.14.86A6.61,6.61,0,0,1,279.09,106.36Zm-.33-15.44a4.55,4.55,0,0,0-3.45,1.5,6.93,6.93,0,0,0-1.7,4h9.83v-.2a6,6,0,0,0-1.35-3.84A4.18,4.18,0,0,0,278.76,90.92Z" transform="translate(-160.37 -79.9)"/></svg>