<?xml version="1.0" encoding="utf-8"?>
<!-- Generator: Adobe Illustrator 23.0.3, SVG Export Plug-In . SVG Version: 6.00 Build 0)  -->
<svg version="1.1" id="Capa_1" xmlns="http://www.w3.org/2000/svg" xmlns:xlink="http://www.w3.org/1999/xlink" x="0px" y="0px"
	 viewBox="0 0 415.4 215" style="enable-background:new 0 0 415.4 215;" xml:space="preserve">
<style type="text/css">
	.st0{fill:#1976D2;}
	.st1{fill:#FFFFFF;}
	.st2{fill:none;stroke:#FFFFFF;stroke-width:3;stroke-linecap:round;stroke-linejoin:round;}
	.st3{fill:none;stroke:#FFFFFF;stroke-width:3;stroke-linecap:round;stroke-linejoin:round;stroke-dasharray:22.2857,22.2857;}
</style>
<path class="st0" d="M393.7,215H21.7C9.7,215,0,203.9,0,190.1V24.9C0,11.1,9.7,0,21.7,0h372.1c11.9,0,21.7,11.1,21.7,24.9v165.2
	C415.4,203.9,405.6,215,393.7,215z"/>
<g>
	<g>
		<path class="st1" d="M86,96.8v-30c10.3,0.7,14.2,5.5,17.7,5.5c4.4,0,6.5-5.6,6.5-8.5c0-7.2-14.2-10.3-24.2-10.6v-4
			c0-1.8-2.2-3.4-4.4-3.4c-2.5,0-4.3,1.6-4.3,3.4v4.3c-14,1.4-28.1,8.8-28.1,27.4c0,18.9,14.8,24.2,28.1,29v34.6
			c-15-1.2-19.1-11.5-23.9-11.5c-3.7,0-6.7,4.9-6.7,8.5c0,7.2,12.4,17.1,30.7,17.4v4.6c0,1.8,1.8,3.4,4.3,3.4c2.2,0,4.4-1.6,4.4-3.4
			v-5c15.9-2.2,26.9-12.2,26.9-30.4C112.9,108.1,98.9,101.6,86,96.8z M78.2,94c-7.8-3-14.2-6-14.2-14.5c0-7.6,5.9-11.3,14.2-12.4V94
			z M85.1,144.4v-31.2c7.2,3.1,13,7.2,13,16.6C98.1,138.2,93.1,142.9,85.1,144.4z"/>
	</g>
</g>
<g>
	<g>
		<line class="st2" x1="157" y1="16" x2="157" y2="29"/>
		<line class="st3" x1="157" y1="51.3" x2="157" y2="173.9"/>
		<line class="st2" x1="157" y1="185" x2="157" y2="198"/>
	</g>
</g>
<g>
	<g>
		<path class="st1" d="M219.1,54.6l11.7-1.9v15.2h17.9v9.7h-17.9v20.6c0,4.1,0.6,6.9,1.9,8.7c1.3,1.7,3.5,2.6,6.6,2.6
			c2.1,0,4-0.2,5.6-0.7c1.6-0.4,2.9-0.9,3.9-1.3l1.9,9.3c-1.4,0.6-3.1,1.2-5.3,1.8c-2.2,0.6-4.8,0.9-7.7,0.9c-3.6,0-6.6-0.5-9-1.4
			c-2.4-1-4.3-2.4-5.7-4.2c-1.4-1.8-2.4-4.1-3-6.7c-0.6-2.6-0.9-5.6-0.9-8.9V54.6z"/>
		<path class="st1" d="M276.8,66.6c3.9,0,7.1,0.5,9.7,1.4c2.6,1,4.7,2.3,6.3,4.1c1.6,1.7,2.7,3.8,3.4,6.3c0.7,2.5,1,5.2,1,8.2v30.6
			c-1.8,0.4-4.5,0.9-8.2,1.4c-3.6,0.5-7.7,0.8-12.3,0.8c-3,0-5.8-0.3-8.3-0.9c-2.5-0.6-4.6-1.5-6.4-2.8c-1.8-1.3-3.2-3-4.1-5
			c-1-2.1-1.5-4.6-1.5-7.6c0-2.9,0.6-5.3,1.7-7.3c1.1-2,2.7-3.6,4.6-4.9c1.9-1.3,4.2-2.2,6.7-2.7c2.5-0.5,5.2-0.8,8-0.8
			c1.3,0,2.6,0.1,4.1,0.2c1.4,0.2,2.9,0.4,4.5,0.8v-1.9c0-1.4-0.2-2.6-0.5-3.9c-0.3-1.2-0.9-2.3-1.7-3.2c-0.8-0.9-1.9-1.7-3.2-2.2
			c-1.3-0.5-3-0.8-5-0.8c-2.7,0-5.2,0.2-7.4,0.6c-2.3,0.4-4.1,0.8-5.5,1.4l-1.4-9.5c1.5-0.5,3.6-1,6.5-1.5
			C270.6,66.9,273.6,66.6,276.8,66.6z M277.8,110.1c3.6,0,6.3-0.2,8.2-0.6V96.6c-0.6-0.2-1.6-0.4-2.8-0.6c-1.2-0.2-2.6-0.3-4.1-0.3
			c-1.3,0-2.6,0.1-3.9,0.3c-1.3,0.2-2.5,0.5-3.6,1.1c-1.1,0.5-1.9,1.2-2.6,2.2c-0.6,0.9-1,2.1-1,3.5c0,2.8,0.9,4.7,2.6,5.7
			C272.5,109.6,274.8,110.1,277.8,110.1z"/>
		<path class="st1" d="M329.7,83.3l10.7-15.5h12.3l-16.9,24.2c3.5,4.4,6.9,8.9,10.2,13.5c3.2,4.5,5.9,8.8,8,12.8h-12.7
			c-0.6-1.2-1.3-2.5-2.3-3.9c-0.9-1.4-1.9-2.9-3-4.4c-1.1-1.5-2.2-3.1-3.3-4.6c-1.2-1.5-2.3-2.9-3.4-4.3c-2.3,2.6-4.5,5.5-6.6,8.7
			c-2.2,3.2-4,6-5.4,8.4h-11.9c1-1.9,2.1-4,3.5-6.1c1.4-2.1,2.9-4.3,4.5-6.6c1.6-2.2,3.2-4.5,4.9-6.7c1.7-2.2,3.4-4.4,5-6.4
			l-17.1-24.7H319L329.7,83.3z"/>
	</g>
	<g>
		<path class="st1" d="M229.4,131.9c4.6,0,8.1,0.8,10.5,2.5c2.4,1.7,3.7,4.3,3.7,7.8c0,1.8-0.3,3.4-1,4.7c-0.7,1.3-1.6,2.4-2.8,3.2
			c-1.2,0.8-2.8,1.4-4.5,1.8c-1.8,0.4-3.8,0.6-6.1,0.6h-2.9v11.1h-5.7v-31c1.3-0.3,2.8-0.5,4.4-0.6
			C226.6,131.9,228,131.9,229.4,131.9z M229.8,136.8c-1.5,0-2.7,0-3.6,0.1v10.7h2.8c2.8,0,4.9-0.4,6.4-1.2c1.5-0.8,2.2-2.2,2.2-4.4
			c0-1-0.2-1.9-0.6-2.6c-0.4-0.7-0.9-1.2-1.6-1.6c-0.7-0.4-1.5-0.7-2.5-0.8C231.9,136.9,230.9,136.8,229.8,136.8z"/>
		<path class="st1" d="M268.7,158.7v5h-19.9v-31.5h5.7v26.5H268.7z"/>
		<path class="st1" d="M295.1,163.7c-0.4-1.2-0.9-2.5-1.3-3.7c-0.5-1.2-0.9-2.5-1.3-3.7h-13.3c-0.4,1.3-0.9,2.5-1.3,3.7
			c-0.4,1.2-0.9,2.4-1.3,3.7h-6c1.2-3.4,2.3-6.5,3.4-9.3c1.1-2.8,2.1-5.5,3.1-8.1c1-2.5,2-5,3-7.3s2-4.6,3.1-6.8h5.5
			c1.1,2.2,2.1,4.5,3.1,6.8c1,2.3,2,4.7,3,7.3c1,2.5,2.1,5.2,3.1,8.1c1.1,2.8,2.2,6,3.4,9.3H295.1z M285.9,138.3
			c-0.7,1.6-1.5,3.6-2.4,5.9c-0.9,2.3-1.8,4.8-2.8,7.5H291c-1-2.7-1.9-5.2-2.8-7.5C287.3,141.8,286.5,139.8,285.9,138.3z"/>
		<path class="st1" d="M318.5,164.4c-2.4,0-4.5-0.4-6.4-1.1c-1.9-0.7-3.5-1.8-4.8-3.2c-1.3-1.4-2.3-3.1-3-5.2c-0.7-2-1-4.4-1-7
			c0-2.6,0.4-5,1.2-7c0.8-2,1.9-3.7,3.3-5.2c1.4-1.4,3-2.5,4.9-3.2c1.9-0.7,3.9-1.1,6-1.1c1.3,0,2.5,0.1,3.5,0.3
			c1.1,0.2,2,0.4,2.8,0.7c0.8,0.2,1.4,0.5,2,0.8c0.5,0.3,0.9,0.5,1.1,0.6l-1.7,4.7c-0.7-0.5-1.8-0.9-3.1-1.3
			c-1.3-0.4-2.8-0.6-4.4-0.6c-1.4,0-2.6,0.2-3.8,0.7c-1.2,0.5-2.2,1.2-3.1,2.1c-0.9,0.9-1.5,2.1-2,3.5c-0.5,1.4-0.7,3.1-0.7,5
			c0,1.7,0.2,3.2,0.6,4.6c0.4,1.4,1,2.6,1.7,3.6c0.8,1,1.8,1.8,3,2.4c1.2,0.6,2.7,0.8,4.4,0.8c2,0,3.7-0.2,5-0.6
			c1.3-0.4,2.3-0.8,3-1.2l1.5,4.7c-0.4,0.2-0.9,0.5-1.5,0.7c-0.6,0.2-1.4,0.5-2.2,0.7c-0.8,0.2-1.8,0.4-2.9,0.5
			C320.8,164.3,319.7,164.4,318.5,164.4z"/>
		<path class="st1" d="M333.5,163.7v-31.5h20.2v4.9h-14.5v7.8h12.9v4.8h-12.9v9.2h15.6v4.9H333.5z"/>
	</g>
</g>
</svg>
